STARTFONT 2.1
FONT -sun-conga-medium-r-normal--14-140-75-75-p-96-adobe-fontspecific
SIZE 14 75 75
FONTBOUNDINGBOX 21 17 -3 -3

STARTPROPERTIES 28
FOUNDRY "sun"
FAMILY_NAME "conga"
WEIGHT_NAME "medium"
SLANT "r"
SETWIDTH_NAME "normal"
ADD_STYLE_NAME ""
PIXEL_SIZE 15
POINT_SIZE 140
RESOLUTION_X 75
RESOLUTION_Y 75
SPACING "p"
AVERAGE_WIDTH 96
CHARSET_REGISTRY "adobe"
CHARSET_ENCODING "fontspecific"
COPYRIGHT "© 1999 Sun Microsystems, Inc."
RAW_PIXELSIZE 1000
RAW_POINTSIZE 964
RAW_ASCENT 927
RAW_DESCENT 211
RAW_AVERAGE_WIDTH 6603
FACE_NAME "CongaNormal"
_XMBDFED_INFO "Edited with xmbdfed 2.4."
WEIGHT 10
X_HEIGHT -1
QUAD_WIDTH 9
DEFAULT_CHAR 4
FONT_DESCENT 3
FONT_ASCENT 14
ENDPROPERTIES

CHARS 203

STARTCHAR char32
ENCODING 32
SWIDTH 43 0
DWIDTH 7 0
BBX 0 0 0 0
BITMAP
ENDCHAR

STARTCHAR char33
ENCODING 33
SWIDTH 18 0
DWIDTH 3 0
BBX 2 10 1 0
BITMAP
80
80
80
80
80
80
80
00
00
80
ENDCHAR

STARTCHAR char34
ENCODING 34
SWIDTH 24 0
DWIDTH 4 0
BBX 3 3 1 7
BITMAP
A0
A0
A0
ENDCHAR

STARTCHAR char35
ENCODING 35
SWIDTH 55 0
DWIDTH 9 0
BBX 8 11 0 0
BITMAP
12
12
14
7F
24
24
24
FE
24
28
28
ENDCHAR

STARTCHAR char36
ENCODING 36
SWIDTH 11 0
DWIDTH 12 0
BBX 10 13 0 -1
BITMAP
0400
0400
1F00
2480
4400
4400
3C00
0780
0480
4480
E480
1F00
0400
ENDCHAR

STARTCHAR char37
ENCODING 37
SWIDTH 48 0
DWIDTH 18 0
BBX 16 10 0 0
BITMAP
7810
8420
8260
82DC
84A2
7941
0241
0441
0862
081C
ENDCHAR

STARTCHAR char38
ENCODING 38
SWIDTH 17 0
DWIDTH 13 0
BBX 11 10 0 0
BITMAP
1E00
2100
2100
1220
3C60
C280
8180
8180
4280
3C60
ENDCHAR

STARTCHAR char39
ENCODING 39
SWIDTH 12 0
DWIDTH 2 0
BBX 1 3 1 7
BITMAP
80
80
80
ENDCHAR

STARTCHAR char40
ENCODING 40
SWIDTH 30 0
DWIDTH 5 0
BBX 3 11 1 0
BITMAP
40
40
40
80
80
80
80
80
80
40
60
ENDCHAR

STARTCHAR char41
ENCODING 41
SWIDTH 30 0
DWIDTH 5 0
BBX 3 10 0 0
BITMAP
40
40
20
20
20
20
20
20
40
40
ENDCHAR

STARTCHAR char42
ENCODING 42
SWIDTH 49 0
DWIDTH 8 0
BBX 7 6 0 4
BITMAP
10
54
FA
28
6C
28
ENDCHAR

STARTCHAR char43
ENCODING 43
SWIDTH 5 0
DWIDTH 11 0
BBX 9 8 0 0
BITMAP
0800
0800
0800
FF80
0800
0800
0800
0800
ENDCHAR

STARTCHAR char44
ENCODING 44
SWIDTH 18 0
DWIDTH 3 0
BBX 1 3 1 -2
BITMAP
80
80
80
ENDCHAR

STARTCHAR char45
ENCODING 45
SWIDTH 30 0
DWIDTH 5 0
BBX 4 1 0 4
BITMAP
F0
ENDCHAR

STARTCHAR char46
ENCODING 46
SWIDTH 18 0
DWIDTH 3 0
BBX 1 1 1 0
BITMAP
80
ENDCHAR

STARTCHAR char47
ENCODING 47
SWIDTH 5 0
DWIDTH 11 0
BBX 9 10 0 0
BITMAP
0080
0100
0200
0200
0400
0800
1000
2000
4000
8000
ENDCHAR

STARTCHAR char48
ENCODING 48
SWIDTH 17 0
DWIDTH 13 0
BBX 11 10 0 0
BITMAP
1F80
20C0
4040
8020
8020
8020
8020
4040
2080
1F00
ENDCHAR

STARTCHAR char49
ENCODING 49
SWIDTH 17 0
DWIDTH 13 0
BBX 3 10 4 0
BITMAP
20
E0
20
20
20
20
20
20
20
20
ENDCHAR

STARTCHAR char50
ENCODING 50
SWIDTH 17 0
DWIDTH 13 0
BBX 9 10 1 0
BITMAP
1E00
6180
4080
0180
0300
0E00
1000
2000
4000
FF80
ENDCHAR

STARTCHAR char51
ENCODING 51
SWIDTH 17 0
DWIDTH 13 0
BBX 9 10 1 0
BITMAP
3E00
C100
4080
0100
1E00
0180
0080
4080
C100
3E00
ENDCHAR

STARTCHAR char52
ENCODING 52
SWIDTH 17 0
DWIDTH 13 0
BBX 9 10 1 0
BITMAP
0200
0600
0A00
1200
2200
4200
C200
FF80
0200
0200
ENDCHAR

STARTCHAR char53
ENCODING 53
SWIDTH 17 0
DWIDTH 13 0
BBX 9 10 1 0
BITMAP
7F00
4000
4000
7E00
4100
0080
0080
4080
C100
3E00
ENDCHAR

STARTCHAR char54
ENCODING 54
SWIDTH 17 0
DWIDTH 13 0
BBX 9 10 1 0
BITMAP
1F00
2080
4000
9E00
B100
A080
C080
4080
6100
1E00
ENDCHAR

STARTCHAR char55
ENCODING 55
SWIDTH 17 0
DWIDTH 13 0
BBX 9 11 1 0
BITMAP
8000
FF80
0100
0100
0200
0200
0400
0C00
0800
1000
1000
ENDCHAR

STARTCHAR char56
ENCODING 56
SWIDTH 17 0
DWIDTH 13 0
BBX 9 10 1 0
BITMAP
3E00
C100
8080
C100
3F00
C180
8080
8080
C180
3E00
ENDCHAR

STARTCHAR char57
ENCODING 57
SWIDTH 17 0
DWIDTH 13 0
BBX 9 10 1 0
BITMAP
3E00
4100
8180
8180
4380
3C80
0080
8100
8300
7C00
ENDCHAR

STARTCHAR char58
ENCODING 58
SWIDTH 18 0
DWIDTH 3 0
BBX 1 6 1 0
BITMAP
80
00
00
00
00
80
ENDCHAR

STARTCHAR char59
ENCODING 59
SWIDTH 18 0
DWIDTH 3 0
BBX 1 8 1 -2
BITMAP
80
00
00
00
00
80
80
80
ENDCHAR

STARTCHAR char60
ENCODING 60
SWIDTH 61 0
DWIDTH 10 0
BBX 7 7 1 0
BITMAP
06
18
E0
80
60
1C
02
ENDCHAR

STARTCHAR char61
ENCODING 61
SWIDTH 5 0
DWIDTH 11 0
BBX 9 4 0 2
BITMAP
FF80
0000
0000
FF80
ENDCHAR

STARTCHAR char62
ENCODING 62
SWIDTH 61 0
DWIDTH 10 0
BBX 7 7 1 0
BITMAP
C0
30
0C
02
1C
60
80
ENDCHAR

STARTCHAR char63
ENCODING 63
SWIDTH 49 0
DWIDTH 8 0
BBX 6 10 1 0
BITMAP
78
8C
04
08
10
20
20
00
00
20
ENDCHAR

STARTCHAR char64
ENCODING 64
SWIDTH 36 0
DWIDTH 16 0
BBX 11 11 2 0
BITMAP
0F00
3180
4040
4FA0
9120
A120
A340
B240
5F80
20C0
1F00
ENDCHAR

STARTCHAR char65
ENCODING 65
SWIDTH 17 0
DWIDTH 13 0
BBX 12 10 0 0
BITMAP
0F00
0A00
0A00
1100
1100
2080
3F80
60C0
4040
E070
ENDCHAR

STARTCHAR char66
ENCODING 66
SWIDTH 17 0
DWIDTH 13 0
BBX 10 10 1 0
BITMAP
FF00
8080
80C0
8080
FF00
8080
8040
8040
80C0
FF00
ENDCHAR

STARTCHAR char67
ENCODING 67
SWIDTH 17 0
DWIDTH 13 0
BBX 12 10 0 0
BITMAP
1F80
2060
4000
8000
8000
8000
C000
4020
3060
1F80
ENDCHAR

STARTCHAR char68
ENCODING 68
SWIDTH 17 0
DWIDTH 13 0
BBX 10 10 1 0
BITMAP
FF00
8080
8040
8040
8040
8040
8040
80C0
8180
FF00
ENDCHAR

STARTCHAR char69
ENCODING 69
SWIDTH 5 0
DWIDTH 11 0
BBX 9 10 1 0
BITMAP
FF80
8000
8000
8000
FE00
8200
8000
8000
8000
FF80
ENDCHAR

STARTCHAR char70
ENCODING 70
SWIDTH 5 0
DWIDTH 11 0
BBX 9 10 1 0
BITMAP
FF80
8000
8000
8000
FE00
8100
8000
8000
8000
C000
ENDCHAR

STARTCHAR char71
ENCODING 71
SWIDTH 17 0
DWIDTH 13 0
BBX 11 10 0 0
BITMAP
1FC0
2060
4020
8000
8000
81E0
8120
4020
3060
1F80
ENDCHAR

STARTCHAR char72
ENCODING 72
SWIDTH 17 0
DWIDTH 13 0
BBX 10 10 1 0
BITMAP
C0C0
8040
8040
8040
FFC0
8040
8040
8040
8040
C0C0
ENDCHAR

STARTCHAR char73
ENCODING 73
SWIDTH 24 0
DWIDTH 4 0
BBX 3 10 1 0
BITMAP
E0
40
40
40
40
40
40
40
40
E0
ENDCHAR

STARTCHAR char74
ENCODING 74
SWIDTH 61 0
DWIDTH 10 0
BBX 8 10 1 0
BITMAP
07
02
02
02
02
02
02
02
86
78
ENDCHAR

STARTCHAR char75
ENCODING 75
SWIDTH 11 0
DWIDTH 12 0
BBX 10 10 1 0
BITMAP
C1C0
8200
8C00
9800
A800
C400
8600
8300
8100
C0C0
ENDCHAR

STARTCHAR char76
ENCODING 76
SWIDTH 5 0
DWIDTH 11 0
BBX 9 10 1 0
BITMAP
C000
8000
8000
8000
8000
8000
8000
8000
8000
FF80
ENDCHAR

STARTCHAR char77
ENCODING 77
SWIDTH 29 0
DWIDTH 15 0
BBX 12 10 1 0
BITMAP
E070
E060
A0A0
B0A0
9120
9120
8A20
8A20
8420
C460
ENDCHAR

STARTCHAR char78
ENCODING 78
SWIDTH 23 0
DWIDTH 14 0
BBX 11 10 1 0
BITMAP
E0E0
A040
B040
9840
8C40
8640
8240
8140
80C0
C0E0
ENDCHAR

STARTCHAR char79
ENCODING 79
SWIDTH 29 0
DWIDTH 15 0
BBX 12 10 0 0
BITMAP
1F80
2060
4010
8010
8010
8010
C010
4030
3060
0F80
ENDCHAR

STARTCHAR char80
ENCODING 80
SWIDTH 11 0
DWIDTH 12 0
BBX 9 10 1 0
BITMAP
FF00
8080
8080
8080
FF00
8000
8000
8000
8000
C000
ENDCHAR

STARTCHAR char81
ENCODING 81
SWIDTH 17 0
DWIDTH 13 0
BBX 11 11 0 -1
BITMAP
1F80
20C0
4060
8020
8020
8020
C020
4040
33C0
1F80
0040
ENDCHAR

STARTCHAR char82
ENCODING 82
SWIDTH 11 0
DWIDTH 12 0
BBX 10 10 1 0
BITMAP
FF00
8080
8080
8080
FF00
8200
8200
8100
8100
C0C0
ENDCHAR

STARTCHAR char83
ENCODING 83
SWIDTH 11 0
DWIDTH 12 0
BBX 10 10 0 0
BITMAP
1F00
60C0
4000
4000
3F80
01C0
0040
4040
E080
1F00
ENDCHAR

STARTCHAR char84
ENCODING 84
SWIDTH 11 0
DWIDTH 12 0
BBX 10 10 0 0
BITMAP
FFC0
0400
0400
0400
0400
0400
0400
0400
0400
0E00
ENDCHAR

STARTCHAR char85
ENCODING 85
SWIDTH 17 0
DWIDTH 13 0
BBX 10 10 1 0
BITMAP
C0C0
8080
8080
8080
8080
8080
8080
8080
C180
3F00
ENDCHAR

STARTCHAR char86
ENCODING 86
SWIDTH 11 0
DWIDTH 12 0
BBX 11 10 0 0
BITMAP
E060
4080
4080
2100
2100
3300
1200
1A00
0C00
0A00
ENDCHAR

STARTCHAR char87
ENCODING 87
SWIDTH 42 0
DWIDTH 17 0
BBX 16 10 0 0
BITMAP
C1C3
4182
4284
4244
2244
2448
2428
1428
1830
1C38
ENDCHAR

STARTCHAR char88
ENCODING 88
SWIDTH 11 0
DWIDTH 12 0
BBX 10 10 0 0
BITMAP
70C0
2100
1200
0E00
0C00
0C00
1200
2100
6180
E0C0
ENDCHAR

STARTCHAR char89
ENCODING 89
SWIDTH 5 0
DWIDTH 11 0
BBX 11 10 0 0
BITMAP
E0E0
4100
2200
1600
1C00
0800
0800
0800
0800
0C00
ENDCHAR

STARTCHAR char90
ENCODING 90
SWIDTH 5 0
DWIDTH 11 0
BBX 9 10 0 0
BITMAP
FF80
0100
0200
0600
0C00
1800
1000
2000
6000
FF80
ENDCHAR

STARTCHAR char91
ENCODING 91
SWIDTH 36 0
DWIDTH 6 0
BBX 4 11 1 0
BITMAP
10
70
40
40
40
40
40
40
40
40
70
ENDCHAR

STARTCHAR char92
ENCODING 92
SWIDTH 24 0
DWIDTH 4 0
BBX 4 11 0 0
BITMAP
80
80
80
40
40
40
20
20
20
10
10
ENDCHAR

STARTCHAR char93
ENCODING 93
SWIDTH 36 0
DWIDTH 6 0
BBX 4 11 0 0
BITMAP
80
F0
10
10
10
10
10
10
10
10
70
ENDCHAR

STARTCHAR char94
ENCODING 94
SWIDTH 0 0
DWIDTH 0 0
BBX 6 2 -3 11
BITMAP
30
48
ENDCHAR

STARTCHAR char95
ENCODING 95
SWIDTH 55 0
DWIDTH 9 0
BBX 8 1 0 -2
BITMAP
FF
ENDCHAR

STARTCHAR char96
ENCODING 96
SWIDTH 0 0
DWIDTH 0 0
BBX 3 2 -2 9
BITMAP
C0
40
ENDCHAR

STARTCHAR char97
ENCODING 97
SWIDTH 5 0
DWIDTH 11 0
BBX 10 9 0 0
BITMAP
0800
0C00
1400
1600
2200
2200
7F00
4100
C0C0
ENDCHAR

STARTCHAR char98
ENCODING 98
SWIDTH 5 0
DWIDTH 11 0
BBX 8 9 1 0
BITMAP
FC
82
81
82
FC
83
81
81
FE
ENDCHAR

STARTCHAR char99
ENCODING 99
SWIDTH 5 0
DWIDTH 11 0
BBX 10 9 0 0
BITMAP
1E00
2180
4080
8000
8000
8000
C040
60C0
1F00
ENDCHAR

STARTCHAR char100
ENCODING 100
SWIDTH 5 0
DWIDTH 11 0
BBX 9 9 1 0
BITMAP
FC00
8200
8100
8080
8080
8080
8100
8300
FC00
ENDCHAR

STARTCHAR char101
ENCODING 101
SWIDTH 61 0
DWIDTH 10 0
BBX 8 9 1 0
BITMAP
FE
81
80
80
F8
80
80
80
FE
ENDCHAR

STARTCHAR char102
ENCODING 102
SWIDTH 61 0
DWIDTH 10 0
BBX 8 9 1 0
BITMAP
FE
81
80
80
F8
80
80
80
C0
ENDCHAR

STARTCHAR char103
ENCODING 103
SWIDTH 5 0
DWIDTH 11 0
BBX 10 9 0 0
BITMAP
1F00
21C0
4080
8000
8000
8380
C080
6080
1F00
ENDCHAR

STARTCHAR char104
ENCODING 104
SWIDTH 5 0
DWIDTH 11 0
BBX 9 9 1 0
BITMAP
8100
8100
8100
8100
FF00
8100
8100
8100
8180
ENDCHAR

STARTCHAR char105
ENCODING 105
SWIDTH 24 0
DWIDTH 4 0
BBX 2 9 1 0
BITMAP
80
80
80
80
80
80
80
80
C0
ENDCHAR

STARTCHAR char106
ENCODING 106
SWIDTH 49 0
DWIDTH 8 0
BBX 7 9 0 0
BITMAP
06
04
04
04
04
04
04
44
78
ENDCHAR

STARTCHAR char107
ENCODING 107
SWIDTH 61 0
DWIDTH 10 0
BBX 8 9 1 0
BITMAP
83
84
88
90
F0
88
84
82
C3
ENDCHAR

STARTCHAR char108
ENCODING 108
SWIDTH 61 0
DWIDTH 10 0
BBX 7 9 1 0
BITMAP
80
80
80
80
80
80
80
80
FE
ENDCHAR

STARTCHAR char109
ENCODING 109
SWIDTH 17 0
DWIDTH 13 0
BBX 9 9 1 0
BITMAP
C180
C180
C180
A280
A280
9480
9480
8880
C880
ENDCHAR

STARTCHAR char110
ENCODING 110
SWIDTH 11 0
DWIDTH 12 0
BBX 9 9 1 0
BITMAP
E100
C100
A100
9100
8900
8500
8500
8300
C180
ENDCHAR

STARTCHAR char111
ENCODING 111
SWIDTH 11 0
DWIDTH 12 0
BBX 10 9 0 0
BITMAP
0E00
3180
40C0
8040
8040
8040
C040
6080
1F00
ENDCHAR

STARTCHAR char112
ENCODING 112
SWIDTH 61 0
DWIDTH 10 0
BBX 8 9 1 0
BITMAP
FE
83
81
81
FE
80
80
80
80
ENDCHAR

STARTCHAR char113
ENCODING 113
SWIDTH 5 0
DWIDTH 11 0
BBX 10 10 0 -1
BITMAP
1E00
2100
4080
8040
8040
8040
4080
6D00
1F00
0080
ENDCHAR

STARTCHAR char114
ENCODING 114
SWIDTH 5 0
DWIDTH 11 0
BBX 8 9 1 0
BITMAP
FE
83
81
81
FE
84
86
82
83
ENDCHAR

STARTCHAR char115
ENCODING 115
SWIDTH 61 0
DWIDTH 10 0
BBX 8 9 1 0
BITMAP
7C
C2
80
80
7E
01
01
C3
3C
ENDCHAR

STARTCHAR char116
ENCODING 116
SWIDTH 61 0
DWIDTH 10 0
BBX 9 9 0 0
BITMAP
FF00
8880
0800
0800
0800
0800
0800
0800
1C00
ENDCHAR

STARTCHAR char117
ENCODING 117
SWIDTH 5 0
DWIDTH 11 0
BBX 8 9 1 0
BITMAP
83
81
81
81
81
81
81
83
7E
ENDCHAR

STARTCHAR char118
ENCODING 118
SWIDTH 61 0
DWIDTH 10 0
BBX 9 9 0 0
BITMAP
8180
C100
4100
6200
2200
2400
1400
1400
1800
ENDCHAR

STARTCHAR char119
ENCODING 119
SWIDTH 29 0
DWIDTH 15 0
BBX 14 9 0 0
BITMAP
820C
8208
4510
4510
4490
28A0
28A0
28A0
1860
ENDCHAR

STARTCHAR char120
ENCODING 120
SWIDTH 61 0
DWIDTH 10 0
BBX 8 9 0 0
BITMAP
43
62
24
1C
08
1C
26
43
C1
ENDCHAR

STARTCHAR char121
ENCODING 121
SWIDTH 55 0
DWIDTH 9 0
BBX 8 9 0 0
BITMAP
81
43
22
14
18
08
08
08
1C
ENDCHAR

STARTCHAR char122
ENCODING 122
SWIDTH 55 0
DWIDTH 9 0
BBX 8 9 0 0
BITMAP
7F
42
04
08
08
10
20
40
FF
ENDCHAR

STARTCHAR char123
ENCODING 123
SWIDTH 30 0
DWIDTH 5 0
BBX 3 13 1 -3
BITMAP
60
40
40
40
40
80
80
40
40
40
40
40
20
ENDCHAR

STARTCHAR char124
ENCODING 124
SWIDTH 24 0
DWIDTH 4 0
BBX 1 11 1 0
BITMAP
80
80
80
80
80
80
80
80
80
80
80
ENDCHAR

STARTCHAR char125
ENCODING 125
SWIDTH 30 0
DWIDTH 5 0
BBX 3 13 1 -3
BITMAP
C0
40
40
40
40
20
20
40
40
40
40
40
80
ENDCHAR

STARTCHAR char126
ENCODING 126
SWIDTH 0 0
DWIDTH 0 0
BBX 6 2 -3 11
BITMAP
64
98
ENDCHAR

STARTCHAR char128
ENCODING 128
SWIDTH 17 0
DWIDTH 13 0
BBX 14 10 -1 0
BITMAP
07E0
0818
1000
7FE0
1000
FFE0
1000
1808
0C18
03E0
ENDCHAR

STARTCHAR char130
ENCODING 130
SWIDTH 12 0
DWIDTH 2 0
BBX 1 3 1 -2
BITMAP
80
80
80
ENDCHAR

STARTCHAR char131
ENCODING 131
SWIDTH 0 0
DWIDTH 0 0
BBX 6 2 -3 11
BITMAP
30
48
ENDCHAR

STARTCHAR char132
ENCODING 132
SWIDTH 30 0
DWIDTH 5 0
BBX 3 3 1 -2
BITMAP
A0
A0
A0
ENDCHAR

STARTCHAR char133
ENCODING 133
SWIDTH 36 0
DWIDTH 16 0
BBX 10 1 2 0
BITMAP
8840
ENDCHAR

STARTCHAR char134
ENCODING 134
SWIDTH 55 0
DWIDTH 9 0
BBX 8 13 0 -3
BITMAP
08
08
08
FF
08
08
08
08
08
08
08
08
08
ENDCHAR

STARTCHAR char136
ENCODING 136
SWIDTH 0 0
DWIDTH 0 0
BBX 4 2 -2 9
BITMAP
60
90
ENDCHAR

STARTCHAR char138
ENCODING 138
SWIDTH 29 0
DWIDTH 15 0
BBX 0 0 0 0
BITMAP
ENDCHAR

STARTCHAR char139
ENCODING 139
SWIDTH 30 0
DWIDTH 5 0
BBX 3 4 1 2
BITMAP
60
C0
C0
60
ENDCHAR

STARTCHAR char140
ENCODING 140
SWIDTH 42 0
DWIDTH 17 0
BBX 15 10 0 0
BITMAP
1FFE
2100
4100
8100
81F8
8104
C100
4100
3100
1FFE
ENDCHAR

STARTCHAR char141
ENCODING 141
SWIDTH 29 0
DWIDTH 15 0
BBX 0 0 0 0
BITMAP
ENDCHAR

STARTCHAR char145
ENCODING 145
SWIDTH 18 0
DWIDTH 3 0
BBX 1 2 1 8
BITMAP
80
80
ENDCHAR

STARTCHAR char146
ENCODING 146
SWIDTH 18 0
DWIDTH 3 0
BBX 1 3 1 7
BITMAP
80
80
80
ENDCHAR

STARTCHAR char147
ENCODING 147
SWIDTH 30 0
DWIDTH 5 0
BBX 4 2 1 8
BITMAP
B0
A0
ENDCHAR

STARTCHAR char148
ENCODING 148
SWIDTH 30 0
DWIDTH 5 0
BBX 2 3 1 7
BITMAP
C0
C0
C0
ENDCHAR

STARTCHAR char149
ENCODING 149
SWIDTH 30 0
DWIDTH 5 0
BBX 4 4 0 3
BITMAP
60
F0
F0
60
ENDCHAR

STARTCHAR char150
ENCODING 150
SWIDTH 17 0
DWIDTH 13 0
BBX 11 1 0 4
BITMAP
FFE0
ENDCHAR

STARTCHAR char151
ENCODING 151
SWIDTH 5 0
DWIDTH 11 0
BBX 9 1 0 4
BITMAP
FF80
ENDCHAR

STARTCHAR char152
ENCODING 152
SWIDTH 0 0
DWIDTH 0 0
BBX 6 2 -3 9
BITMAP
64
58
ENDCHAR

STARTCHAR char153
ENCODING 153
SWIDTH 23 0
DWIDTH 14 0
BBX 12 6 0 4
BITMAP
FE30
AB60
2360
2360
22E0
72B0
ENDCHAR

STARTCHAR char155
ENCODING 155
SWIDTH 30 0
DWIDTH 5 0
BBX 3 4 1 2
BITMAP
C0
60
60
80
ENDCHAR

STARTCHAR char156
ENCODING 156
SWIDTH 23 0
DWIDTH 14 0
BBX 13 9 0 0
BITMAP
0FF0
3208
4200
8200
83E0
8200
4200
6200
1FF0
ENDCHAR

STARTCHAR char157
ENCODING 157
SWIDTH 29 0
DWIDTH 15 0
BBX 0 0 0 0
BITMAP
ENDCHAR

STARTCHAR char159
ENCODING 159
SWIDTH 5 0
DWIDTH 11 0
BBX 8 13 1 0
BITMAP
44
20
00
81
82
44
24
38
10
10
10
10
10
ENDCHAR

STARTCHAR char160
ENCODING 160
SWIDTH 43 0
DWIDTH 7 0
BBX 0 0 0 0
BITMAP
ENDCHAR

STARTCHAR char161
ENCODING 161
SWIDTH 18 0
DWIDTH 3 0
BBX 2 10 0 0
BITMAP
C0
00
00
40
40
40
40
40
40
C0
ENDCHAR

STARTCHAR char162
ENCODING 162
SWIDTH 5 0
DWIDTH 11 0
BBX 10 11 0 -1
BITMAP
0400
0E00
3580
4480
8400
8400
8400
4440
64C0
1F00
0400
ENDCHAR

STARTCHAR char163
ENCODING 163
SWIDTH 11 0
DWIDTH 12 0
BBX 10 10 1 0
BITMAP
1F80
20C0
4000
4000
C200
FC00
4000
4000
4000
FF80
ENDCHAR

STARTCHAR char164
ENCODING 164
SWIDTH 0 0
DWIDTH 0 0
BBX 4 2 -1 11
BITMAP
60
40
ENDCHAR

STARTCHAR char165
ENCODING 165
SWIDTH 0 0
DWIDTH 0 0
BBX 6 2 -3 11
BITMAP
48
30
ENDCHAR

STARTCHAR char166
ENCODING 166
SWIDTH 29 0
DWIDTH 15 0
BBX 0 0 0 0
BITMAP
ENDCHAR

STARTCHAR char167
ENCODING 167
SWIDTH 55 0
DWIDTH 9 0
BBX 7 13 0 -3
BITMAP
3C
42
20
30
4C
46
42
62
3E
0C
42
C6
3C
ENDCHAR

STARTCHAR char168
ENCODING 168
SWIDTH 0 0
DWIDTH 0 0
BBX 4 1 -2 10
BITMAP
90
ENDCHAR

STARTCHAR char169
ENCODING 169
SWIDTH 11 0
DWIDTH 12 0
BBX 11 10 0 0
BITMAP
0E00
3180
2780
4940
9120
9020
9020
4F40
2080
1F00
ENDCHAR

STARTCHAR char170
ENCODING 170
SWIDTH 0 0
DWIDTH 0 0
BBX 4 2 -2 12
BITMAP
90
90
ENDCHAR

STARTCHAR char171
ENCODING 171
SWIDTH 43 0
DWIDTH 7 0
BBX 4 6 1 1
BITMAP
50
50
A0
A0
50
50
ENDCHAR

STARTCHAR char172
ENCODING 172
SWIDTH 5 0
DWIDTH 11 0
BBX 10 4 0 0
BITMAP
FFC0
0040
0040
0040
ENDCHAR

STARTCHAR char174
ENCODING 174
SWIDTH 11 0
DWIDTH 12 0
BBX 11 10 0 0
BITMAP
0E00
3180
3E80
4940
8B20
8C20
8A20
5940
20C0
1F00
ENDCHAR

STARTCHAR char176
ENCODING 176
SWIDTH 43 0
DWIDTH 7 0
BBX 5 5 -1 5
BITMAP
30
48
88
48
30
ENDCHAR

STARTCHAR char177
ENCODING 177
SWIDTH 55 0
DWIDTH 9 0
BBX 8 9 0 0
BITMAP
10
10
10
FF
10
10
10
00
FF
ENDCHAR

STARTCHAR char179
ENCODING 179
SWIDTH 29 0
DWIDTH 15 0
BBX 0 0 0 0
BITMAP
ENDCHAR

STARTCHAR char180
ENCODING 180
SWIDTH 0 0
DWIDTH 0 0
BBX 3 2 -1 9
BITMAP
60
40
ENDCHAR

STARTCHAR char182
ENCODING 182
SWIDTH 61 0
DWIDTH 10 0
BBX 7 12 1 -2
BITMAP
3E
64
E4
E4
64
24
24
24
24
24
24
24
ENDCHAR

STARTCHAR char183
ENCODING 183
SWIDTH 18 0
DWIDTH 3 0
BBX 1 1 1 4
BITMAP
80
ENDCHAR

STARTCHAR char184
ENCODING 184
SWIDTH 0 0
DWIDTH 0 0
BBX 4 3 -2 -3
BITMAP
70
10
60
ENDCHAR

STARTCHAR char185
ENCODING 185
SWIDTH 29 0
DWIDTH 15 0
BBX 0 0 0 0
BITMAP
ENDCHAR

STARTCHAR char186
ENCODING 186
SWIDTH 0 0
DWIDTH 0 0
BBX 6 2 -3 11
BITMAP
64
98
ENDCHAR

STARTCHAR char187
ENCODING 187
SWIDTH 43 0
DWIDTH 7 0
BBX 4 6 1 1
BITMAP
A0
60
50
50
A0
A0
ENDCHAR

STARTCHAR char189
ENCODING 189
SWIDTH 29 0
DWIDTH 15 0
BBX 0 0 0 0
BITMAP
ENDCHAR

STARTCHAR char191
ENCODING 191
SWIDTH 49 0
DWIDTH 8 0
BBX 6 10 0 0
BITMAP
10
00
00
10
20
60
C0
84
C4
78
ENDCHAR

STARTCHAR char192
ENCODING 192
SWIDTH 17 0
DWIDTH 13 0
BBX 12 13 0 0
BITMAP
0800
0C00
0000
0600
0A00
0A00
1100
1100
2080
3F80
60C0
4040
E070
ENDCHAR

STARTCHAR char193
ENCODING 193
SWIDTH 17 0
DWIDTH 13 0
BBX 12 13 0 0
BITMAP
0200
0400
0000
0600
0A00
0A00
1100
1100
2080
3F80
60C0
4040
E070
ENDCHAR

STARTCHAR char194
ENCODING 194
SWIDTH 17 0
DWIDTH 13 0
BBX 12 13 0 0
BITMAP
0C00
1200
0000
0600
0A00
0A00
1100
1100
2080
3F80
60C0
4040
E070
ENDCHAR

STARTCHAR char195
ENCODING 195
SWIDTH 17 0
DWIDTH 13 0
BBX 12 13 0 0
BITMAP
1D00
2700
0000
0600
0A00
0A00
1100
1100
2080
3F80
60C0
4040
E070
ENDCHAR

STARTCHAR char196
ENCODING 196
SWIDTH 17 0
DWIDTH 13 0
BBX 11 11 0 0
BITMAP
2E80
0E00
0A00
1A00
1100
1100
2080
3F80
4040
4040
A060
ENDCHAR

STARTCHAR char197
ENCODING 197
SWIDTH 17 0
DWIDTH 13 0
BBX 12 13 0 0
BITMAP
0E00
0A00
0E00
0600
0A00
0A00
1100
1100
2080
3F80
60C0
4040
E070
ENDCHAR

STARTCHAR char198
ENCODING 198
SWIDTH 36 0
DWIDTH 16 0
BBX 14 11 0 0
BITMAP
0004
07FC
0500
0D00
0900
11F0
1108
3F00
2100
4100
C1FC
ENDCHAR

STARTCHAR char199
ENCODING 199
SWIDTH 17 0
DWIDTH 13 0
BBX 12 12 0 -2
BITMAP
1F80
2060
4000
8000
8000
8000
C000
4020
3860
0780
0600
0200
ENDCHAR

STARTCHAR char200
ENCODING 200
SWIDTH 5 0
DWIDTH 11 0
BBX 9 13 1 0
BITMAP
2000
1000
0000
FF80
8000
8000
8000
FE00
8200
8000
8000
8000
FF80
ENDCHAR

STARTCHAR char201
ENCODING 201
SWIDTH 5 0
DWIDTH 11 0
BBX 9 13 1 0
BITMAP
0C00
0800
0000
FF80
8000
8000
8000
FE00
8200
8000
8000
8000
FF80
ENDCHAR

STARTCHAR char202
ENCODING 202
SWIDTH 5 0
DWIDTH 11 0
BBX 9 13 1 0
BITMAP
1800
2400
0000
FF80
8000
8000
8000
FE00
8200
8000
8000
8000
FF80
ENDCHAR

STARTCHAR char203
ENCODING 203
SWIDTH 5 0
DWIDTH 11 0
BBX 9 13 1 0
BITMAP
6400
0000
0000
FF80
8000
8000
8000
FC00
8200
8000
8000
8000
FF80
ENDCHAR

STARTCHAR char204
ENCODING 204
SWIDTH 24 0
DWIDTH 4 0
BBX 5 13 -1 0
BITMAP
40
20
00
20
20
20
20
20
20
20
20
20
38
ENDCHAR

STARTCHAR char205
ENCODING 205
SWIDTH 24 0
DWIDTH 4 0
BBX 4 13 1 0
BITMAP
20
40
00
40
40
40
40
40
40
40
40
40
E0
ENDCHAR

STARTCHAR char206
ENCODING 206
SWIDTH 24 0
DWIDTH 4 0
BBX 6 13 -1 0
BITMAP
20
58
00
20
20
20
20
20
20
20
20
20
38
ENDCHAR

STARTCHAR char207
ENCODING 207
SWIDTH 24 0
DWIDTH 4 0
BBX 5 13 -1 0
BITMAP
88
00
00
20
20
20
20
20
20
20
20
20
38
ENDCHAR

STARTCHAR char209
ENCODING 209
SWIDTH 23 0
DWIDTH 14 0
BBX 11 13 1 0
BITMAP
1900
2600
0000
C040
A040
B040
9840
8C40
8640
8240
8140
80C0
C0E0
ENDCHAR

STARTCHAR char210
ENCODING 210
SWIDTH 29 0
DWIDTH 15 0
BBX 12 13 0 0
BITMAP
0C00
0400
0000
1F80
2060
4010
8010
8010
8010
C010
4030
3060
0F80
ENDCHAR

STARTCHAR char211
ENCODING 211
SWIDTH 29 0
DWIDTH 15 0
BBX 12 13 0 0
BITMAP
0100
0200
0000
1F80
2060
4010
8010
8010
8010
C010
4030
3060
0F80
ENDCHAR

STARTCHAR char212
ENCODING 212
SWIDTH 29 0
DWIDTH 15 0
BBX 12 13 0 0
BITMAP
0600
0900
0000
1F80
2060
4010
8010
8010
8010
C010
4030
3060
1F80
ENDCHAR

STARTCHAR char213
ENCODING 213
SWIDTH 29 0
DWIDTH 15 0
BBX 12 13 0 0
BITMAP
0C80
1300
0000
1F80
2060
4010
8010
8010
8010
C010
4030
3060
0F80
ENDCHAR

STARTCHAR char214
ENCODING 214
SWIDTH 29 0
DWIDTH 15 0
BBX 12 11 0 0
BITMAP
4020
5FA0
2060
4010
8010
8010
8010
C010
4030
3060
0F80
ENDCHAR

STARTCHAR char216
ENCODING 216
SWIDTH 29 0
DWIDTH 15 0
BBX 12 11 0 0
BITMAP
0010
1FF0
2060
40A0
8110
8210
8410
C810
5030
7060
9F80
ENDCHAR

STARTCHAR char217
ENCODING 217
SWIDTH 17 0
DWIDTH 13 0
BBX 10 13 1 0
BITMAP
1000
0800
0000
8080
8080
8080
8080
8080
8080
8080
8080
C180
3F00
ENDCHAR

STARTCHAR char218
ENCODING 218
SWIDTH 17 0
DWIDTH 13 0
BBX 10 13 1 0
BITMAP
0400
0800
0000
8080
8080
8080
8080
8080
8080
8080
8080
C180
3F00
ENDCHAR

STARTCHAR char219
ENCODING 219
SWIDTH 17 0
DWIDTH 13 0
BBX 10 13 1 0
BITMAP
1C00
2600
0000
8080
8080
8080
8080
8080
8080
8080
8080
C180
3F00
ENDCHAR

STARTCHAR char220
ENCODING 220
SWIDTH 17 0
DWIDTH 13 0
BBX 11 11 1 0
BITMAP
D2E0
8080
8080
8080
8080
8080
8080
8080
8080
C180
3F00
ENDCHAR

STARTCHAR char222
ENCODING 222
SWIDTH 29 0
DWIDTH 15 0
BBX 0 0 0 0
BITMAP
ENDCHAR

STARTCHAR char223
ENCODING 223
SWIDTH 54 0
DWIDTH 19 0
BBX 18 9 0 0
BITMAP
3E1F00
C23080
802000
802000
7E1F00
0100C0
010040
8330C0
7C0F00
ENDCHAR

STARTCHAR char224
ENCODING 224
SWIDTH 5 0
DWIDTH 11 0
BBX 10 11 0 0
BITMAP
1000
0800
0C00
0C00
1400
1600
2200
2200
7F00
4100
C0C0
ENDCHAR

STARTCHAR char225
ENCODING 225
SWIDTH 5 0
DWIDTH 11 0
BBX 10 11 0 0
BITMAP
0400
0C00
0C00
0C00
1400
1600
2200
2200
7F00
4100
C0C0
ENDCHAR

STARTCHAR char226
ENCODING 226
SWIDTH 5 0
DWIDTH 11 0
BBX 10 11 0 0
BITMAP
0800
1400
0C00
0C00
1400
1600
2200
2200
7F00
4100
C0C0
ENDCHAR

STARTCHAR char227
ENCODING 227
SWIDTH 5 0
DWIDTH 11 0
BBX 10 11 0 0
BITMAP
3A00
2400
0C00
0C00
1400
1600
2200
2200
7F00
4100
C0C0
ENDCHAR

STARTCHAR char228
ENCODING 228
SWIDTH 5 0
DWIDTH 11 0
BBX 10 11 0 0
BITMAP
2200
0000
0C00
0C00
1400
1200
2200
2200
7F00
4100
C0C0
ENDCHAR

STARTCHAR char229
ENCODING 229
SWIDTH 5 0
DWIDTH 11 0
BBX 9 11 0 0
BITMAP
1C00
1C00
1E00
0C00
1400
1600
2200
2200
7F00
4180
C080
ENDCHAR

STARTCHAR char230
ENCODING 230
SWIDTH 23 0
DWIDTH 14 0
BBX 12 9 0 0
BITMAP
0FF0
0C10
1400
1400
27C0
2400
7C00
4400
87F0
ENDCHAR

STARTCHAR char231
ENCODING 231
SWIDTH 5 0
DWIDTH 11 0
BBX 10 11 0 -2
BITMAP
1E00
2180
4080
8000
8000
8000
4040
71C0
0E00
0C00
0400
ENDCHAR

STARTCHAR char232
ENCODING 232
SWIDTH 61 0
DWIDTH 10 0
BBX 8 11 1 0
BITMAP
60
20
FE
81
80
80
F8
80
80
80
FE
ENDCHAR

STARTCHAR char233
ENCODING 233
SWIDTH 61 0
DWIDTH 10 0
BBX 8 11 1 0
BITMAP
08
10
FE
81
80
80
F8
80
80
80
FE
ENDCHAR

STARTCHAR char234
ENCODING 234
SWIDTH 61 0
DWIDTH 10 0
BBX 8 11 1 0
BITMAP
30
48
FE
81
80
80
F8
80
80
80
FE
ENDCHAR

STARTCHAR char235
ENCODING 235
SWIDTH 61 0
DWIDTH 10 0
BBX 8 11 1 0
BITMAP
48
00
FE
81
80
80
F8
80
80
80
FE
ENDCHAR

STARTCHAR char236
ENCODING 236
SWIDTH 24 0
DWIDTH 4 0
BBX 4 11 -1 0
BITMAP
40
20
20
20
20
20
20
20
20
20
30
ENDCHAR

STARTCHAR char237
ENCODING 237
SWIDTH 24 0
DWIDTH 4 0
BBX 3 11 1 0
BITMAP
40
80
80
80
80
80
80
80
80
80
C0
ENDCHAR

STARTCHAR char238
ENCODING 238
SWIDTH 24 0
DWIDTH 4 0
BBX 5 11 -1 0
BITMAP
20
50
20
20
20
20
20
20
20
20
30
ENDCHAR

STARTCHAR char239
ENCODING 239
SWIDTH 24 0
DWIDTH 4 0
BBX 5 11 -1 0
BITMAP
88
00
20
20
20
20
20
20
20
20
30
ENDCHAR

STARTCHAR char241
ENCODING 241
SWIDTH 11 0
DWIDTH 12 0
BBX 9 11 1 0
BITMAP
3200
2C00
C180
C100
A100
9100
8900
8500
8500
8300
C180
ENDCHAR

STARTCHAR char242
ENCODING 242
SWIDTH 11 0
DWIDTH 12 0
BBX 10 11 0 0
BITMAP
0800
0400
0E00
3180
40C0
8040
8040
8040
C040
6080
1F00
ENDCHAR

STARTCHAR char243
ENCODING 243
SWIDTH 11 0
DWIDTH 12 0
BBX 10 11 0 0
BITMAP
0200
0400
0E00
3180
40C0
8040
8040
8040
C040
6080
1F00
ENDCHAR

STARTCHAR char244
ENCODING 244
SWIDTH 11 0
DWIDTH 12 0
BBX 10 11 0 0
BITMAP
0C00
1200
0E00
3180
40C0
8040
8040
8040
C040
6080
1F00
ENDCHAR

STARTCHAR char245
ENCODING 245
SWIDTH 11 0
DWIDTH 12 0
BBX 10 11 0 0
BITMAP
1D00
1600
0E00
3180
40C0
8040
8040
8040
C040
6080
1F00
ENDCHAR

STARTCHAR char246
ENCODING 246
SWIDTH 11 0
DWIDTH 12 0
BBX 10 11 0 0
BITMAP
1200
1000
0E00
3180
40C0
8040
8040
8040
C040
6080
1F00
ENDCHAR

STARTCHAR char247
ENCODING 247
SWIDTH 55 0
DWIDTH 9 0
BBX 7 5 0 1
BITMAP
10
00
FE
00
10
ENDCHAR

STARTCHAR char248
ENCODING 248
SWIDTH 11 0
DWIDTH 12 0
BBX 10 9 0 0
BITMAP
1E40
2180
4140
8240
8440
8840
D040
6080
9F00
ENDCHAR

STARTCHAR char249
ENCODING 249
SWIDTH 5 0
DWIDTH 11 0
BBX 8 11 1 0
BITMAP
20
10
83
81
81
81
81
81
81
83
7E
ENDCHAR

STARTCHAR char250
ENCODING 250
SWIDTH 5 0
DWIDTH 11 0
BBX 8 11 1 0
BITMAP
08
10
83
81
81
81
81
81
81
83
7E
ENDCHAR

STARTCHAR char251
ENCODING 251
SWIDTH 5 0
DWIDTH 11 0
BBX 8 11 1 0
BITMAP
10
2C
83
81
81
81
81
81
81
83
7E
ENDCHAR

STARTCHAR char252
ENCODING 252
SWIDTH 5 0
DWIDTH 11 0
BBX 8 11 1 0
BITMAP
24
20
83
81
81
81
81
81
81
81
7E
ENDCHAR

STARTCHAR char255
ENCODING 255
SWIDTH 55 0
DWIDTH 9 0
BBX 8 11 0 0
BITMAP
26
00
C1
42
22
14
18
08
08
08
1C
ENDCHAR
ENDFONT
